<svg width="40" height="40" viewBox="0 0 40 40" fill="none" xmlns="http://www.w3.org/2000/svg">
<path d="M19.9997 3.75C19.2184 3.75 18.4422 4.0125 17.7734 4.4925L15.7034 5.9375L13.3184 6.25H13.2797L13.2409 6.28875C12.4587 6.46539 11.7426 6.86011 11.1756 7.42714C10.6085 7.99417 10.2138 8.71029 10.0372 9.4925L9.99969 9.53125V9.57L9.68719 11.9925L8.24219 13.8675L8.20219 13.9062V13.945C7.32844 15.3413 7.28969 17.1438 8.24219 18.4762L9.72594 20.5462L10.1172 22.6962L6.09344 28.8275L4.80469 30.7425H10.7809L12.2259 34.1012L13.1247 36.25L14.4134 34.2962L18.3584 28.3587C19.4184 28.7938 20.6147 28.8337 21.6409 28.3587L25.5859 34.2962L26.8747 36.25L27.7734 34.1012L29.2184 30.7425H35.1947L33.9059 28.8275L29.9997 22.8913L30.3122 20.5475L31.7572 18.4775L31.7972 18.4388V18.4C32.6709 17.0038 32.7097 15.24 31.7572 13.9075L30.3122 11.8363L29.8434 9.4925H29.8822C29.8772 9.4625 29.8484 9.4425 29.8434 9.41375C29.6184 7.77875 28.3247 6.45125 26.6797 6.25H26.6397L24.2959 5.9375L22.2259 4.4925C21.5794 4.0189 20.801 3.75929 19.9997 3.75ZM19.9997 6.28875C20.2872 6.28875 20.5709 6.37625 20.7809 6.52375L23.0072 8.125L23.2809 8.32L23.5934 8.36L26.3284 8.75H26.3659C26.9284 8.8125 27.3184 9.20375 27.3822 9.76625V9.84375L27.8909 12.6175L27.9284 12.8912L28.1247 13.125L29.7259 15.3512C30.0247 15.7663 30.0634 16.47 29.6872 17.07L27.9297 19.5312L27.8897 19.8438L27.4997 22.5788V22.6163C27.4789 22.8116 27.4121 22.9992 27.3047 23.1637L27.2259 23.2038V23.2413C27.0402 23.4644 26.7737 23.605 26.4847 23.6325H26.4059L23.5547 24.1413L23.2422 24.1788L23.0072 24.375L20.7809 25.9762C20.3659 26.275 19.6234 26.3137 19.0234 25.9375L16.9922 24.375L16.7572 24.18L16.4059 24.14L13.6709 23.75H13.6334C13.4567 23.7344 13.2863 23.6765 13.1366 23.5812C12.9869 23.4859 12.8624 23.356 12.7734 23.2025C12.6904 23.0583 12.6372 22.8989 12.6172 22.7337V22.6562L12.1097 19.805L12.0697 19.4925L11.8747 19.2575L10.2734 17.0312C9.97469 16.6163 9.93594 15.8737 10.3122 15.2738L11.8747 13.2425L12.0697 13.0075L12.1084 12.6562L12.4609 10.0388C12.4659 10.02 12.4947 10.02 12.4997 10C12.5776 9.69909 12.7346 9.42451 12.9544 9.20472C13.1742 8.98493 13.4488 8.82793 13.7497 8.75C13.7697 8.745 13.7697 8.71625 13.7884 8.71125L16.4059 8.35875L16.7184 8.32125L16.9922 8.125L19.2184 6.52375C19.4284 6.3775 19.7122 6.28875 19.9997 6.28875ZM28.6322 25.3125L30.5472 28.2425H27.5372L27.2247 29.0238L26.3659 31.015L23.7097 26.9525L24.2947 26.5238L26.7572 26.0938V26.1325C26.7859 26.1275 26.8047 26.0987 26.8347 26.0938C27.4926 25.9988 28.1129 25.729 28.6309 25.3125H28.6322ZM11.3672 25.3512C11.91 25.8447 12.5918 26.1586 13.3197 26.25H13.3584L15.7422 26.5625L16.2884 26.9925L13.6322 31.015L12.7734 29.0238L12.4609 28.2425H9.45344L11.3672 25.3512Z" fill="url(#paint0_linear)"/>
<defs>
<linearGradient id="paint0_linear" x1="35.1947" y1="36.25" x2="2.76777" y2="5.92834" gradientUnits="userSpaceOnUse">
<stop stop-color="#FE6600"/>
<stop offset="1" stop-color="#F78C45"/>
</linearGradient>
</defs>
</svg>
