<svg width="212" height="80" viewBox="0 0 212 80" fill="none" xmlns="http://www.w3.org/2000/svg">
<path d="M56.4698 42.6666H60.1198L61.9827 29.3333H58.3328L57.6104 34.419H48.1245L48.8469 29.3333H45.197L43.334 42.6666H46.9839L47.6873 37.5999H57.1732L56.4698 42.6666Z" fill="white"/>
<path d="M62.1768 42.6666H65.8267L67.6897 29.3333H64.0398L62.1768 42.6666Z" fill="white"/>
<path d="M82.2476 29.3333H69.7391L67.8761 42.6666H80.3846C82.97 42.6666 84.5098 41.2952 84.89 38.6856L85.6314 33.3142C86.0116 30.7047 84.833 29.3333 82.2476 29.3333ZM80.0235 39.4856H71.9632L72.9327 32.5142H80.993C81.6963 32.5142 82.0575 32.8761 81.9435 33.638L81.2781 38.3809C81.1831 39.1237 80.7268 39.4856 80.0235 39.4856Z" fill="white"/>
<path d="M104.014 32.0952C104.299 30.1713 103.577 29.3333 101.638 29.3333H87.9507L86.0878 42.6666H89.7377L90.441 37.5809H98.8624C99.3567 37.5809 99.5658 37.8285 99.5088 38.3237L98.9005 42.6666H102.55L103.064 38.8952C103.273 37.3523 102.893 36.2285 101.144 36.019C102.797 35.9237 103.596 35.1237 103.843 33.4094L104.014 32.0952ZM99.4518 34.419H90.8783L91.1444 32.5142H99.7179C100.136 32.5142 100.288 32.6666 100.231 33.1047L100.136 33.8285C100.06 34.2666 99.87 34.419 99.4518 34.419Z" fill="white"/>
<path d="M107.091 42.6666H117.832C119.809 42.6666 120.816 41.7333 121.102 39.8094L122.166 32.1904C122.432 30.2666 121.672 29.3333 119.695 29.3333H108.954C106.977 29.3333 105.951 30.2666 105.665 32.1904L104.601 39.8094C104.335 41.7333 105.114 42.6666 107.091 42.6666ZM117.566 38.8952C117.509 39.3333 117.338 39.4856 116.919 39.4856H108.878C108.46 39.4856 108.327 39.3142 108.384 38.8952L109.201 33.1047C109.258 32.6666 109.429 32.5142 109.848 32.5142H117.889C118.307 32.5142 118.44 32.6666 118.383 33.1047L117.566 38.8952Z" fill="white"/>
<path d="M128.118 32.5142H136.121C136.558 32.5142 136.691 32.6666 136.634 33.1047L135.303 42.6666H138.953L140.398 32.1904C140.683 30.2666 139.904 29.3333 137.946 29.3333H127.224C125.247 29.3333 124.221 30.2666 123.936 32.1904L122.491 42.6666H126.141L127.471 33.1047C127.528 32.6666 127.699 32.5142 128.118 32.5142Z" fill="white"/>
<path d="M157.314 42.6666L158.758 32.1904C159.043 30.2666 158.264 29.3333 156.306 29.3333H145.584C143.607 29.3333 142.581 30.2666 142.296 32.1904L140.851 42.6666H144.501L145.204 37.5809H154.367L153.664 42.6666H157.314ZM154.481 32.5142C154.918 32.5142 155.051 32.6666 154.994 33.1047L154.804 34.419H145.641L145.832 33.1047C145.889 32.6666 146.06 32.5142 146.478 32.5142H154.481Z" fill="white"/>
<path d="M159.287 42.6666H171.568C174.153 42.6666 175.712 41.2761 176.073 38.6856L177.385 29.3333H173.735L172.48 38.3809C172.366 39.1237 171.91 39.4856 171.225 39.4856H163.374L164.8 29.3333H161.15L159.287 42.6666Z" fill="white"/>
<path d="M193.793 42.6666L195.237 32.1904C195.522 30.2666 194.743 29.3333 192.785 29.3333H182.063C180.086 29.3333 179.06 30.2666 178.775 32.1904L177.33 42.6666H180.98L181.683 37.5809H190.846L190.143 42.6666H193.793ZM190.96 32.5142C191.397 32.5142 191.53 32.6666 191.473 33.1047L191.283 34.419H182.12L182.311 33.1047C182.368 32.6666 182.539 32.5142 182.957 32.5142H190.96Z" fill="white"/>
<path d="M212.001 39.4856H199.853L201.279 29.3333H197.629L195.766 42.6666H211.563L212.001 39.4856Z" fill="white"/>
<path fill-rule="evenodd" clip-rule="evenodd" d="M27.3924 3.43214C29.4673 6.72231 29.68 6.8767 32.5331 7.17575C34.1703 7.34741 35.6383 7.38736 35.7957 7.26482C35.9524 7.14174 36.2314 5.82135 36.4144 4.33039C36.5974 2.83942 37.0103 1.61944 37.3314 1.61944C38.1399 1.61944 45.5179 4.37682 45.8183 4.79139C45.9529 4.97655 46.2712 6.25158 46.5253 7.62379L46.988 10.1199L44.0237 9.67995C38.1503 8.80761 31.3109 10.5393 27.6078 13.8365C15.424 24.6846 19.828 47.447 36.4351 59.4633C48.0796 67.8887 62.8141 69.1427 71.6469 62.4603L73.9235 60.7378L76.2822 62.8927C77.579 64.0782 78.652 65.4363 78.6658 65.9114C78.6803 66.3864 77.7461 67.7959 76.5902 69.0439L74.4877 71.3122L71.232 69.4439L67.9756 67.5751L65.7211 69.1503L63.466 70.7249L64.5887 73.7436C65.206 75.4035 65.447 76.9436 65.1238 77.1665C64.0246 77.9244 58.5786 79.3738 57.9579 79.0731C57.6174 78.909 56.4726 77.5665 55.4141 76.0907C54.2181 74.4232 53.141 73.5104 52.5692 73.6804C52.0638 73.8315 50.6103 73.9546 49.3391 73.9546C47.0515 73.9546 47.0239 73.9843 46.5453 76.977L46.0627 80L43.9442 79.6685C37.2181 78.617 36.5718 78.3331 36.5718 76.4302C36.5718 72.5554 35.9214 71.546 32.4337 70.0134L29.102 68.5494L27.0016 70.7832L24.9004 73.0164L20.9411 70.042L16.981 67.0671L18.3779 64.1035L19.7748 61.1394L17.298 58.1138C14.9614 55.2592 14.6948 55.1059 12.5833 55.4039C7.98182 56.0522 8.08263 56.1094 5.88962 51.6079C3.84782 47.4162 3.83607 47.3331 5.17426 46.6378C9.45326 44.416 9.28203 44.7404 8.34296 40.6319L7.47984 36.8586L4.07292 35.611L0.666016 34.3635V29.7978V25.232L4.03358 25.5813L7.40041 25.9305L8.17655 23.5224C9.29585 20.0471 9.21228 19.7189 6.43855 16.7002L3.92446 13.965L5.53056 11.2838C7.86514 7.38737 8.20417 7.30746 11.9135 9.78629L15.165 11.959L17.1993 10.7029C19.5601 9.24486 19.6719 8.66294 18.2813 5.07911C17.7157 3.62161 17.2497 2.25642 17.2455 2.04536C17.2393 1.71769 23.5926 0 24.8106 0C25.0399 0 26.2019 1.54441 27.3924 3.43214Z" fill="url(#paint0_linear)"/>
<path d="M51.5405 21.9688H64.0982C64.0982 21.9688 59.9674 14.4451 46.7488 11.4351C33.5302 8.42515 27.334 15.2295 27.334 15.2295C27.334 15.2295 33.365 13.2012 41.4613 15.5567C49.5577 17.9121 51.5405 21.9688 51.5405 21.9688Z" fill="white" fill-opacity="0.87"/>
<path d="M66.1636 49.7107H75.334C75.334 49.7107 74.7557 55.4687 69.7161 59.5253C61.203 66.3779 50.5491 63.32 50.5491 63.32C50.5491 63.32 58.2324 62.3965 62.7763 57.1045C65.4851 53.9496 66.1636 49.7107 66.1636 49.7107Z" fill="white" fill-opacity="0.87"/>
<defs>
<linearGradient id="paint0_linear" x1="0.666016" y1="80" x2="80.6404" y2="2.02499" gradientUnits="userSpaceOnUse">
<stop stop-color="#FE6600"/>
<stop offset="1" stop-color="#F78C45"/>
</linearGradient>
</defs>
</svg>
