<svg width="716" height="239" viewBox="0 0 716 239" fill="none" xmlns="http://www.w3.org/2000/svg">
<path d="M172.024 126H183.544L189.424 84H177.904L175.624 100.02H145.684L147.964 84H136.444L130.564 126H142.084L144.304 110.04H174.244L172.024 126ZM190.036 126H201.556L207.436 84H195.916L190.036 126ZM253.385 84H213.905L208.025 126H247.505C255.665 126 260.525 121.68 261.725 113.46L264.065 96.54C265.265 88.32 261.545 84 253.385 84ZM246.365 115.98H220.925L223.985 94.02H249.425C251.645 94.02 252.785 95.16 252.425 97.56L250.325 112.5C250.025 114.84 248.585 115.98 246.365 115.98ZM322.085 92.7C322.985 86.64 320.705 84 314.585 84H271.385L265.505 126H277.025L279.245 109.98H305.825C307.385 109.98 308.045 110.76 307.865 112.32L305.945 126H317.465L319.085 114.12C319.745 109.26 318.545 105.72 313.025 105.06C318.245 104.76 320.765 102.24 321.545 96.84L322.085 92.7ZM307.685 100.02H280.625L281.465 94.02H308.525C309.845 94.02 310.325 94.5 310.145 95.88L309.845 98.16C309.605 99.54 309.005 100.02 307.685 100.02ZM331.797 126H365.697C371.937 126 375.117 123.06 376.017 117L379.377 93C380.217 86.94 377.817 84 371.577 84H337.677C331.437 84 328.197 86.94 327.297 93L323.937 117C323.097 123.06 325.557 126 331.797 126ZM364.857 114.12C364.677 115.5 364.137 115.98 362.817 115.98H337.437C336.117 115.98 335.697 115.44 335.877 114.12L338.457 95.88C338.637 94.5 339.177 94.02 340.497 94.02H365.877C367.197 94.02 367.617 94.5 367.437 95.88L364.857 114.12ZM398.162 94.02H423.422C424.802 94.02 425.222 94.5 425.042 95.88L420.842 126H432.362L436.922 93C437.822 86.94 435.362 84 429.182 84H395.342C389.102 84 385.862 86.94 384.962 93L380.402 126H391.922L396.122 95.88C396.302 94.5 396.842 94.02 398.162 94.02ZM490.311 126L494.871 93C495.771 86.94 493.311 84 487.131 84H453.291C447.051 84 443.811 86.94 442.911 93L438.351 126H449.871L452.091 109.98H481.011L478.791 126H490.311ZM481.371 94.02C482.751 94.02 483.171 94.5 482.991 95.88L482.391 100.02H453.471L454.071 95.88C454.251 94.5 454.791 94.02 456.111 94.02H481.371ZM496.54 126H535.3C543.46 126 548.38 121.62 549.52 113.46L553.66 84H542.14L538.18 112.5C537.82 114.84 536.38 115.98 534.22 115.98H509.44L513.94 84H502.42L496.54 126ZM605.448 126L610.008 93C610.908 86.94 608.448 84 602.268 84H568.428C562.188 84 558.948 86.94 558.048 93L553.488 126H565.008L567.228 109.98H596.148L593.928 126H605.448ZM596.508 94.02C597.888 94.02 598.308 94.5 598.128 95.88L597.528 100.02H568.608L569.208 95.88C569.388 94.5 569.928 94.02 571.248 94.02H596.508ZM662.917 115.98H624.577L629.077 84H617.557L611.677 126H661.537L662.917 115.98Z" fill="black"/>
<path d="M221.344 70.0009H228.344C228.344 70.0009 223.33 62.2131 211.844 53C202.956 45.8706 193.748 37.8876 170.844 31.9995C147.622 26.0296 130.367 30.9945 118.344 39.5016C108.567 46.4201 104.33 53.9819 102.554 58.4787C102.166 59.4589 103.277 60.0137 103.961 59.2126C107.974 54.5171 116.351 45.9653 127.344 41.501C143.344 36.501 155.844 36.001 178.844 43.001C201.844 50.001 221.344 70.0009 221.344 70.0009Z" fill="#FC7317"/>
<path d="M178.343 167.004C155.534 160.062 132.726 141.811 132.348 141.508C132.337 141.498 132.337 141.501 132.323 141.495C131.273 141.045 130.386 142.146 131.102 143.036C133.597 146.137 138.228 151.298 145.344 157.005C154.232 164.134 162.844 175 192.344 181.001C221.844 187.001 228.344 179.501 237.844 172.5C245.643 166.753 249.399 156.287 250.493 152.725C250.684 152.103 250.214 151.5 249.563 151.5H240.344C240.344 151.5 238.344 161.5 225.844 167.004C209.844 172.004 201.343 174.004 178.343 167.004Z" fill="#FC7317"/>
<path fill-rule="evenodd" clip-rule="evenodd" d="M120.986 17.1685C120.574 17.2491 118.548 17.5767 116.486 17.8974C114.423 18.2175 110.991 18.9444 108.86 19.5131C104.242 20.7447 104.059 21.2514 106.722 25.4328C107.677 26.9335 108.465 28.5107 108.472 28.9384C108.509 31.157 100.539 35.8641 96.0103 36.2993C94.0152 36.4909 93.0681 36.2168 89.4692 34.4069C87.155 33.2429 84.4372 31.9998 83.4301 31.6442C81.6155 31.0034 81.5695 31.0209 78.3617 33.5811C76.5815 35.0022 73.1992 37.9896 70.8454 40.2201L66.5655 44.2755L70.6489 47.3249C72.8946 49.0021 75.7119 51.2307 76.91 52.2781L79.0877 54.1815L77.5166 58.2574C75.3969 63.7559 74.1693 65.4607 71.3055 66.8813C69.0328 68.0084 68.3967 68.0789 61.18 68.0004C56.9451 67.9543 53.4798 68.1084 53.4798 68.343C53.4798 68.5771 52.9172 72.8011 52.2302 77.7283C50.5745 89.5948 50.5835 91.5562 52.2972 92.9043C53.3143 93.7046 54.3349 93.9413 56.7731 93.9413C61.2965 93.9413 64.6588 94.7946 67.2906 96.6105C69.1553 97.8976 69.8968 98.8955 71.26 101.952C72.1821 104.02 73.1952 107.38 73.5112 109.42C74.5493 116.111 72.9486 118.427 65.0134 121.717C60.1359 123.74 58.4803 125.194 58.4803 127.456C58.4803 129.534 66.7995 145.97 71.2915 152.766C72.2176 154.167 73.4752 155.537 74.0862 155.81C75.2649 156.336 75.4989 156.266 84.0732 152.811C89.9873 150.428 90.9614 150.266 93.4291 151.254C95.1803 151.955 96.0768 152.913 98.9976 157.206C100.912 160.02 103.86 163.829 105.547 165.672C107.235 167.514 109.108 169.743 109.711 170.624L110.806 172.227L108.396 177.184C107.07 179.911 105.597 183.374 105.123 184.88L104.26 187.619L106.729 189.856C108.753 191.688 125.12 202.991 125.75 202.991C125.851 202.991 127.306 203.797 128.985 204.781C130.664 205.765 133.273 207.117 134.784 207.785L137.53 209L138.778 207.653C139.464 206.912 140.724 204.828 141.577 203.023C143.805 198.306 146.882 193.766 148.498 192.811C150.287 191.754 152.232 191.784 157.49 192.952C167.825 195.247 172.89 198.89 175.197 205.688C175.638 206.988 176.34 210.346 176.755 213.149C177.218 216.269 177.866 218.734 178.424 219.499C180.05 221.729 181.698 221.941 197.619 221.972L212.495 222V217.766C212.495 215.437 212.045 211.216 211.496 208.386C210.947 205.556 210.497 202.961 210.496 202.618C210.494 201.619 213.975 198.043 216.243 196.713C219.435 194.842 223.95 193.426 227.008 193.338C229.464 193.267 230.007 193.447 231.896 194.967C233.065 195.907 236.314 199.447 239.115 202.835C242.095 206.44 244.572 208.994 245.085 208.994C246.043 208.994 259.174 196.118 261.519 192.88C262.93 190.932 262.947 190.835 262.16 189.312C261.715 188.451 259.471 184.984 257.175 181.607C254.593 177.813 252.999 174.974 252.999 174.173C252.999 172.806 255.771 162.838 256.564 161.352C257.212 160.139 258.844 158.5 260.27 159.504C260.775 160.321 263.026 161.031 264.066 160.701C264.868 160.446 265 159.877 265 156.674C265 153.13 264.936 152.919 263.717 152.456C263.012 152.187 259.35 151.968 255.58 151.968H248.724L247.372 155.595C245.463 160.715 243.424 166.43 240.344 169.5C236.692 173.141 229.257 178.313 224.9 180.243C222.893 181.133 222.189 181.767 220.344 182.5C217.476 183.639 216.531 183.925 212.689 184.459C204.458 185.604 189.723 184.897 182.319 183.001C174.502 180.999 157.874 173.463 150.239 168.463C130.247 155.368 108.96 131.607 99.0506 111.325C92.825 98.5819 90.5293 89.7238 90.1383 76.9335C89.8538 67.6312 90.1808 64.6088 91.9975 59.7531C93.5591 55.5777 98.3201 48.714 102.311 44.8843C110.689 36.8446 123.116 31.0764 132.987 30.6457C135.05 30.5557 139.311 30.204 142.456 29.8634C158.216 28.1581 181.21 34.1558 196.535 43.9698C205.652 49.8085 219.875 62.2702 223.503 67.5972L224.746 69.423L232.247 69.42C240.83 69.416 241.998 69.2234 241.998 67.8138C241.998 66.6757 235.156 59.4139 232.587 57.8257C231.13 56.9248 230.668 56.8642 229.022 57.358C223.965 58.8737 219.643 57.2269 213.474 51.4353C209.946 48.1232 209.856 47.9787 210.145 46.0998C210.309 45.0373 210.593 43.6637 210.776 43.0469C211.27 41.3836 209.264 39.7789 201.03 35.2513C193.053 30.8648 190.908 30.202 190.026 31.8503C187.969 35.695 181.05 35.0482 174.023 30.3541C171.654 28.7714 170.775 27.8004 169.752 25.6379C169.044 24.1397 167.886 22.5355 167.179 22.0723C165.564 21.0133 159.343 19.198 153.473 18.072C148.033 17.029 147.661 17.2401 147.107 21.6811L146.736 24.6595L139.198 24.797C130.76 24.9511 131.164 25.0967 127.809 20.6992C127.024 19.6702 125.674 18.3961 124.809 17.8689C123.309 16.9539 122.678 16.8384 120.986 17.1685Z" fill="black"/>
</svg>
