<svg width="49" height="64" viewBox="0 0 49 64" fill="none" xmlns="http://www.w3.org/2000/svg">
<g clip-path="url(#clip0)">
<path d="M42.0625 24L48.0625 30.4375L39.625 33.0625L41.625 41.625L33.6875 39.8125L40.0625 60.125C40.0625 61.5 39.4792 62.5833 38.3125 63.375L35.0625 60.125L31.1875 64C30.2708 63.7917 29.5208 63.3229 28.9375 62.5938C28.3542 61.8646 28.0625 61.0417 28.0625 60.125L24 47.25L20 60.125C20 61.0417 19.7083 61.8646 19.125 62.5938C18.5417 63.3229 17.7917 63.7917 16.875 64L13 60.125L9.75 63.375C8.58333 62.5833 8 61.5 8 60.125L14.375 39.8125L6.4375 41.625L8.4375 33.0625L0 30.4375L6 24L0 17.5625L8.4375 15L6.4375 6.4375L15 8.4375L17.5625 0L24 6L30.4375 0L33.0625 8.4375L41.625 6.4375L39.625 15L48.0625 17.5625L42.0625 24ZM24.0312 12C20.7188 12 17.8854 13.1771 15.5312 15.5312C13.1771 17.8854 12 20.7188 12 24.0312C12 27.3438 13.1771 30.1771 15.5312 32.5312C17.8854 34.8854 20.7188 36.0625 24.0312 36.0625C27.3438 36.0625 30.1771 34.8854 32.5312 32.5312C34.8854 30.1771 36.0625 27.3438 36.0625 24.0312C36.0625 20.7188 34.8854 17.8854 32.5312 15.5312C30.1771 13.1771 27.3438 12 24.0312 12Z" fill="#FC7317" fill-opacity="0.7"/>
</g>
<defs>
<clipPath id="clip0">
<rect width="48.0625" height="64" fill="white"/>
</clipPath>
</defs>
</svg>
