<svg width="56" height="56" viewBox="0 0 56 56" fill="none" xmlns="http://www.w3.org/2000/svg">
<path d="M27.9994 12.9993C25.0327 12.9993 22.1326 13.8791 19.6658 15.5273C17.1991 17.1755 15.2765 19.5182 14.1412 22.2591C13.0059 25 12.7088 28.016 13.2876 30.9257C13.8664 33.8354 15.295 36.5081 17.3928 38.6059C19.4906 40.7037 22.1633 42.1323 25.073 42.7111C27.9827 43.2899 30.9987 42.9928 33.7396 41.8575C36.4805 40.7222 38.8232 38.7996 40.4714 36.3329C42.1196 33.8661 42.9994 30.9661 42.9994 27.9993C42.9949 24.0225 41.4131 20.2098 38.601 17.3977C35.7889 14.5856 31.9762 13.0038 27.9994 12.9993V12.9993ZM27.9994 36.9993C26.2193 36.9993 24.4793 36.4715 22.9992 35.4826C21.5192 34.4936 20.3657 33.088 19.6845 31.4435C19.0033 29.7989 18.825 27.9893 19.1723 26.2435C19.5196 24.4977 20.3767 22.894 21.6354 21.6354C22.8941 20.3767 24.4977 19.5195 26.2436 19.1723C27.9894 18.825 29.799 19.0032 31.4435 19.6844C33.0881 20.3656 34.4937 21.5192 35.4826 22.9992C36.4715 24.4792 36.9994 26.2193 36.9994 27.9993C36.9967 30.3855 36.0477 32.6731 34.3604 34.3604C32.6732 36.0476 30.3855 36.9967 27.9994 36.9993ZM55.0726 32.2006L52.9996 29.0913V26.9078L55.0724 23.7986C55.4883 23.1816 55.7617 22.4797 55.8727 21.7439C55.9838 21.0081 55.9297 20.2569 55.7144 19.5446C55.1713 17.758 54.4561 16.0283 53.5789 14.3798C53.2277 13.7242 52.735 13.1549 52.1364 12.7134C51.5378 12.2719 50.8485 11.9692 50.1184 11.8273L46.4494 11.0936L44.9056 9.54983L44.1716 5.88108C44.0298 5.15094 43.7272 4.46155 43.2857 3.86294C42.8442 3.26434 42.275 2.77154 41.6194 2.42033C39.9708 1.54319 38.241 0.828008 36.4544 0.284831C35.7421 0.0695393 34.9909 0.015431 34.2551 0.126429C33.5193 0.237426 32.8174 0.510748 32.2004 0.92658L29.0914 2.99933H26.9079L23.7994 0.92683C23.1823 0.510935 22.4804 0.237558 21.7446 0.126517C21.0088 0.0154759 20.2575 0.069554 19.5451 0.284831C17.7586 0.827849 16.0289 1.54286 14.3804 2.41983C13.7246 2.77106 13.1553 3.26393 12.7138 3.86262C12.2723 4.46132 11.9697 5.15083 11.8279 5.88108L11.0936 9.54933L9.54963 11.0933L5.88088 11.8271C5.15082 11.969 4.46152 12.2716 3.863 12.7131C3.26449 13.1545 2.77177 13.7237 2.42063 14.3793C1.54334 16.0279 0.828075 17.7576 0.284878 19.5443C0.0695512 20.2566 0.0154246 21.0079 0.126423 21.7436C0.237421 22.4794 0.510763 23.1813 0.926628 23.7983L2.99938 26.9076V29.0911L0.926628 32.2003C0.510837 32.8173 0.237538 33.5191 0.12654 34.2548C0.0155429 34.9905 0.0696291 35.7416 0.284878 36.4538C0.828 38.2406 1.54318 39.9704 2.42038 41.6191C2.77155 42.2747 3.2643 42.844 3.86286 43.2855C4.46142 43.727 5.15077 44.0297 5.88088 44.1716L9.54988 44.9053L11.0936 46.4491L11.8274 50.1183C11.9693 50.8484 12.272 51.5377 12.7134 52.1363C13.1549 52.7348 13.724 53.2276 14.3796 53.5788C16.0282 54.4558 17.758 55.1709 19.5446 55.7141C20.2569 55.9293 21.0081 55.9834 21.7438 55.8724C22.4795 55.7614 23.1813 55.4881 23.7984 55.0723L26.9076 52.9996H29.0911L32.2006 55.0726C33.0308 55.6295 34.0075 55.9278 35.0071 55.9298C35.4976 55.9297 35.9854 55.857 36.4546 55.7141C38.241 55.1711 39.9706 54.4561 41.6189 53.5791C42.2746 53.2279 42.8438 52.7351 43.2853 52.1365C43.7268 51.5379 44.0295 50.8485 44.1714 50.1183L44.9054 46.4493L46.4491 44.9053L50.1181 44.1716C50.8482 44.0297 51.5376 43.7271 52.1361 43.2856C52.7347 42.8442 53.2275 42.275 53.5786 41.6193C54.4559 39.9708 55.1712 38.241 55.7144 36.4543C55.9297 35.7421 55.9838 34.9909 55.8728 34.2551C55.7618 33.5194 55.4885 32.8176 55.0726 32.2006V32.2006ZM47.5036 31.6638L49.8326 35.1571C49.4717 36.2622 49.0271 37.3383 48.5026 38.3758L44.3819 39.1998C43.801 39.3159 43.2675 39.6014 42.8486 40.0203L40.0204 42.8493C39.6016 43.2681 39.3161 43.8014 39.1999 44.3821L38.3756 48.5031C37.3381 49.0275 36.262 49.472 35.1569 49.8328L31.6634 47.5038C31.1707 47.175 30.5917 46.9995 29.9994 46.9993H25.9994C25.4071 46.9993 24.8282 47.1746 24.3354 47.5031L20.8419 49.8321C19.7368 49.4713 18.6607 49.0269 17.6231 48.5026L16.7994 44.3818C16.6833 43.8009 16.3978 43.2674 15.9789 42.8486L13.1506 40.0203C12.7318 39.6015 12.1984 39.316 11.6176 39.1998L7.49663 38.3756C6.97227 37.3379 6.52774 36.2618 6.16688 35.1566L8.49563 31.6633C8.82415 31.1706 8.99943 30.5916 8.99938 29.9993V25.9993C8.99936 25.4071 8.82399 24.8281 8.49538 24.3353L6.16688 20.8418C6.52777 19.7366 6.97239 18.6605 7.49688 17.6228L11.6174 16.7988C12.1982 16.6827 12.7317 16.3972 13.1506 15.9783L15.9791 13.1498C16.3979 12.731 16.6833 12.1976 16.7994 11.6168L17.6234 7.49633C18.661 6.97196 19.7372 6.52743 20.8424 6.16658L24.3356 8.49558C24.8283 8.82401 25.4072 8.99929 25.9994 8.99933H29.9994C30.5916 8.99934 31.1706 8.82406 31.6634 8.49558L35.1566 6.16658C36.2618 6.52744 37.338 6.97197 38.3756 7.49633L39.2001 11.6173C39.3162 12.1981 39.6016 12.7315 40.0204 13.1503L42.8486 15.9786C43.2674 16.3974 43.8008 16.6829 44.3816 16.7991L48.5024 17.6233C49.0269 18.6609 49.4715 19.7369 49.8324 20.8421L47.5034 24.3353C47.1748 24.8282 46.9994 25.4072 46.9994 25.9996V29.9996C46.9994 30.5919 47.1748 31.171 47.5034 31.6638H47.5036Z" fill="#FC7317" fill-opacity="0.7"/>
</svg>
