<svg width="64" height="64" viewBox="0 0 64 64" fill="none" xmlns="http://www.w3.org/2000/svg">
<path fill-rule="evenodd" clip-rule="evenodd" d="M52.0648 40.0474C49.9685 40.0421 47.9557 40.8689 46.4685 42.3464C44.9814 43.8238 44.1413 45.8311 44.1328 47.9274C44.1328 52.2754 47.6928 55.8074 52.0648 55.8074C54.1601 55.8116 56.1714 54.9842 57.6571 53.5068C59.1428 52.0293 59.9814 50.0226 59.9888 47.9274C59.9888 43.5794 56.4328 40.0474 52.0648 40.0474Z" fill="url(#paint0_linear)"/>
<path fill-rule="evenodd" clip-rule="evenodd" d="M27.9394 40.2466C23.5794 40.2466 20.0234 43.7066 20.0234 47.9826C20.0234 52.2466 23.5794 55.7186 27.9394 55.7186C32.3154 55.7186 35.8594 52.2506 35.8594 47.9826C35.8634 43.7106 32.3154 40.2466 27.9394 40.2466Z" fill="url(#paint1_linear)"/>
<path fill-rule="evenodd" clip-rule="evenodd" d="M13.104 25.984C13.104 31.5 5.756 35.968 0 35.968L2.68 16C8.436 16 13.104 20.468 13.104 25.984Z" fill="url(#paint2_linear)"/>
<path fill-rule="evenodd" clip-rule="evenodd" d="M24.6231 34.4999L6.03906 27.2799L7.69506 21.8359L26.2751 29.0559L24.6231 34.4999Z" fill="url(#paint3_linear)"/>
<path fill-rule="evenodd" clip-rule="evenodd" d="M60.8997 31.5994C61.0237 31.0674 59.8317 30.5154 59.8317 29.9434V15.5554C59.8317 11.5034 57.8277 8.21143 53.8037 8.21143H36.6397C34.699 8.2199 32.8408 8.99789 31.473 10.3747C30.1052 11.7515 29.3394 13.6147 29.3437 15.5554L26.6557 29.9434L26.6637 29.9994C23.3237 30.9594 21.1797 33.2034 21.1797 37.3834C21.1797 37.5594 21.2117 37.7154 21.2157 37.8914C23.2047 36.5589 25.5455 35.8487 27.9397 35.8514C30.786 35.8473 33.5416 36.8521 35.7173 38.6872C37.893 40.5224 39.3479 43.0692 39.8237 45.8754C39.9317 46.3514 39.9997 46.7834 40.0317 47.1234C40.2396 44.0715 41.5991 41.2125 43.8352 39.125C46.0712 37.0375 49.0167 35.8774 52.0757 35.8794C56.9837 35.8794 61.1957 38.8034 63.0997 42.9834C63.6837 41.3554 63.7917 39.4394 63.7917 37.3794C63.7837 34.7194 62.6477 32.8674 60.8997 31.5994ZM44.2117 28.2474H35.7517V13.4194C35.7517 12.2674 36.1717 11.8194 36.6877 11.8194H43.2677C43.7877 11.8194 44.2117 12.2674 44.2117 13.4194V28.2474ZM56.0717 24.2354H47.8357V11.7514H56.0717V24.2354Z" fill="url(#paint4_linear)"/>
<defs>
<linearGradient id="paint0_linear" x1="59.9888" y1="55.8074" x2="44.2291" y2="39.9517" gradientUnits="userSpaceOnUse">
<stop stop-color="#FE6600"/>
<stop offset="1" stop-color="#F78C45"/>
</linearGradient>
<linearGradient id="paint1_linear" x1="35.8594" y1="55.7186" x2="20.3916" y2="39.8869" gradientUnits="userSpaceOnUse">
<stop stop-color="#FE6600"/>
<stop offset="1" stop-color="#F78C45"/>
</linearGradient>
<linearGradient id="paint2_linear" x1="13.104" y1="35.968" x2="-5.21477" y2="23.9463" gradientUnits="userSpaceOnUse">
<stop stop-color="#FE6600"/>
<stop offset="1" stop-color="#F78C45"/>
</linearGradient>
<linearGradient id="paint3_linear" x1="26.2751" y1="34.4999" x2="14.8852" y2="16.2999" gradientUnits="userSpaceOnUse">
<stop stop-color="#FE6600"/>
<stop offset="1" stop-color="#F78C45"/>
</linearGradient>
<linearGradient id="paint4_linear" x1="63.7917" y1="47.1234" x2="25.0397" y2="4.68662" gradientUnits="userSpaceOnUse">
<stop stop-color="#FE6600"/>
<stop offset="1" stop-color="#F78C45"/>
</linearGradient>
</defs>
</svg>
