<svg width="40" height="40" viewBox="0 0 40 40" fill="none" xmlns="http://www.w3.org/2000/svg">
<path d="M13.3333 20.0001C13.3333 21.7682 14.0357 23.4639 15.286 24.7141C16.5362 25.9644 18.2319 26.6667 20 26.6667C21.7681 26.6667 23.4638 25.9644 24.714 24.7141C25.9643 23.4639 26.6667 21.7682 26.6667 20.0001M5 10.0001H35H5ZM16.6667 3.33341V6.66675V3.33341ZM23.3333 3.33341V6.66675V3.33341ZM26.6667 20.0001C30.6233 21.9717 33.3333 26.0834 33.3333 31.6667V38.3334H6.66667V31.6667C6.66667 26.0767 9.385 21.9584 13.3333 20.0001H26.6667ZM20 27.5001V38.3334V27.5001ZM20 21.6667C21.3132 21.6667 22.6136 21.4081 23.8268 20.9055C25.0401 20.403 26.1425 19.6664 27.0711 18.7378C27.9997 17.8092 28.7362 16.7068 29.2388 15.4936C29.7413 14.2803 30 12.98 30 11.6667C30 10.3535 29.7413 9.05317 29.2388 7.83991C28.7362 6.62666 27.9997 5.52427 27.0711 4.59568C26.1425 3.66709 25.0401 2.9305 23.8268 2.42795C22.6136 1.92541 21.3132 1.66675 20 1.66675C17.3478 1.66675 14.8043 2.72032 12.9289 4.59568C11.0536 6.47104 10 9.01458 10 11.6667C10 14.3189 11.0536 16.8625 12.9289 18.7378C14.8043 20.6132 17.3478 21.6667 20 21.6667V21.6667Z" stroke="url(#paint0_linear)" stroke-width="2"/>
<defs>
<linearGradient id="paint0_linear" x1="35" y1="38.3334" x2="-0.940592" y2="8.92747" gradientUnits="userSpaceOnUse">
<stop stop-color="#FE6600"/>
<stop offset="1" stop-color="#F78C45"/>
</linearGradient>
</defs>
</svg>
