<svg width="40" height="40" viewBox="0 0 40 40" fill="none" xmlns="http://www.w3.org/2000/svg">
<path d="M26.8171 31.4212H24.2211C24.0376 31.4212 23.8616 31.4941 23.7318 31.6238C23.602 31.7536 23.5291 31.9296 23.5291 32.1131H23.5263V33.3171H7.26991V14.464H14.3591C14.5426 14.464 14.7187 14.391 14.8484 14.2613C14.9782 14.1315 15.0511 13.9555 15.0511 13.772V6.68275H23.5263V11.6188H23.5327C23.5414 11.7956 23.6177 11.9623 23.7458 12.0844C23.8739 12.2066 24.0441 12.2749 24.2211 12.2752H26.8171C27.1871 12.2752 27.4867 11.984 27.5055 11.6188H27.5091V11.5836V11.5832V4.99955H27.5071V3.39195C27.5071 3.20842 27.4342 3.03241 27.3044 2.90263C27.1747 2.77286 26.9986 2.69995 26.8151 2.69995H13.6667L3.28711 13.08V36.6075C3.28711 36.9899 3.59671 37.2995 3.97911 37.2995H26.8147C26.9982 37.2995 27.1742 37.2266 27.304 37.0969C27.4338 36.9671 27.5067 36.7911 27.5067 36.6075V35.6283H27.5087V32.1123C27.5087 32.0215 27.4908 31.9316 27.4561 31.8477C27.4213 31.7639 27.3703 31.6876 27.3061 31.6235C27.2419 31.5593 27.1656 31.5084 27.0817 31.4736C26.9978 31.4389 26.9079 31.4211 26.8171 31.4212Z" fill="url(#paint0_linear)"/>
<path d="M36.5115 15.6161L31.8631 10.9677C31.7989 10.9034 31.7226 10.8524 31.6386 10.8176C31.5546 10.7828 31.4646 10.7649 31.3737 10.7649C31.2828 10.7649 31.1928 10.7828 31.1089 10.8176C31.0249 10.8524 30.9486 10.9034 30.8843 10.9677L18.1623 23.6897L18.1899 23.7173L18.1463 23.7057L16.4059 30.2005L16.4071 30.2009C16.3662 30.3222 16.36 30.4526 16.3891 30.5773C16.4182 30.702 16.4815 30.8161 16.5719 30.9069C16.6721 31.0068 16.8006 31.0736 16.94 31.098C17.0794 31.1224 17.223 31.1033 17.3511 31.0433L17.3519 31.0457L23.7839 29.3221L23.7799 29.3073L23.7891 29.3169L36.5115 16.5945C36.5758 16.5302 36.6268 16.454 36.6616 16.37C36.6964 16.2861 36.7143 16.1961 36.7143 16.1053C36.7143 16.0144 36.6964 15.9244 36.6616 15.8405C36.6268 15.7565 36.5758 15.6803 36.5115 15.6161ZM18.5227 28.9413L19.5563 25.0841L22.3799 27.9077L18.5227 28.9413Z" fill="url(#paint1_linear)"/>
<defs>
<linearGradient id="paint0_linear" x1="27.5091" y1="37.2995" x2="-5.00163" y2="14.5399" gradientUnits="userSpaceOnUse">
<stop stop-color="#FE6600"/>
<stop offset="1" stop-color="#F78C45"/>
</linearGradient>
<linearGradient id="paint1_linear" x1="36.7143" y1="31.1083" x2="16.3708" y2="10.7651" gradientUnits="userSpaceOnUse">
<stop stop-color="#FE6600"/>
<stop offset="1" stop-color="#F78C45"/>
</linearGradient>
</defs>
</svg>
